# xmcd
#
# Track frame offsets:
#	150
#	14684
#	28973
#	48100
#	64090
#	85943
#	100043
#	119309
#	136184
#	154046
#	168371
#	184777
#	201209
#	216442
#	233298
#
# Disc length: 3335 seconds
#
# Revision: 1
# Processed by: cddbd v1.5.2PL0 Copyright (c) Steve Scherf et al.
# Submitted via: audiograbber 1.83.01
#
DISCID=c40d050f
DTITLE=Compilation - Pop Hits Monhtly-Best of Country 2002
DYEAR=2002
DGENRE=Karaoke
TTITLE0=George Jones/Garth Brooks - Beer Run
TTITLE1=Toby Keith - I Wanna Talk about Me
TTITLE2=Garth Brooks - Wrapped up in You
TTITLE3=Tim McGraw - The Cowboy in Me
TTITLE4=Bob Carlisle - The Christmas Shoe
TTITLE5=Tracy Byrd - Ten Rounds with Jose Cuervo
TTITLE6=Martina McBride - Where Would You Be
TTITLE7=Hank Williams Jr. - Kid Rock - The F Word
TTITLE8=Dixie Chicks - Landslide
TTITLE9=Toby Keith -  Who's Your Daddy
TTITLE10=Clint Black/Lisa HArtman - Easy for Me to Say
TTITLE11=Garth Brooks/Trisha Yearwood - Squeeze Me In
TTITLE12=She Daisy - Get Over Yourself
TTITLE13=Leann Womack - Something Worth Leaving Behind
TTITLE14=Brooks and Dunn - A Long Goodbye
EXTD=
EXTT0=
EXTT1=
EXTT2=
EXTT3=
EXTT4=
EXTT5=
EXTT6=
EXTT7=
EXTT8=
EXTT9=
EXTT10=
EXTT11=
EXTT12=
EXTT13=
EXTT14=
PLAYORDER=
